<svg fill='green' xmlns="http://www.w3.org/2000/svg" 
xmlns:xlink="http://www.w3.org/1999/xlink" 
version="1.1" x="0px" y="0px" viewBox="0 0 100 125" 
style="enable-background:new 0 0 100 100;" xml:space="preserve"><style type="text/css">
	.st0{fill-rule:evenodd;clip-rule:evenodd;}
</style><g><path class="st0" 
d="M50.1,90.5l23.3-27.3l1.9-2.4l1.6-2.6l1.3-2.7l1.1-2.8l0.8-2.9l0.5-3l0.2-3l-0.1-3l-0.4-3l-0.7-2.9l-1-2.9   l-1.3-2.8l-1.5-2.6l-1.8-2.4l-2-2.3l-2.2-2L67.2,18l-2.6-1.6l-2.7-1.3l-2.8-1l-2.9-0.7l-3-0.4l-3-0.1l-3,0.1l-3,0.4l-2.9,0.7   l-2.9,1l-2.7,1.3L33,18l-2.4,1.8l-2.2,2l-2,2.3l-1.8,2.4L23,29.2l-1.3,2.8l-1,2.9L20,37.8l-0.4,3l-0.1,3l0.2,3l0.5,3l0.8,2.9   l1.1,2.8l1.3,2.7l1.6,2.6l1.9,2.4L50.1,90.5 M50.1,93.1L25.5,64.3l-1.9-2.5L22,59.2l-1.4-2.8l-1.1-2.9l-0.8-3l-0.5-3.1l-0.2-3.1   l0.1-3.1l0.4-3.1l0.7-3.1l1-3l1.2-2.9l1.5-2.7l1.8-2.6l2-2.4l2.2-2.2l2.4-2l2.6-1.7l2.8-1.5l2.9-1.2l3-0.9l3.1-0.6l3.1-0.3h3.1   l3.1,0.3l3.1,0.6l3,0.9l2.9,1.2l2.8,1.5l2.6,1.7l2.4,2l2.2,2.2l2,2.4l1.8,2.6l1.5,2.7l1.2,2.9l1,3l0.7,3.1l0.4,3.1l0.1,3.1   l-0.2,3.1l-0.5,3.1l-0.8,3l-1.1,2.9l-1.4,2.8l-1.7,2.6l-1.9,2.5L50.1,93.1"/>
<path class="st0" d="M58.4,31.7L47,47.2l-4.4-4.4l-3.9,3.9l8.9,8.9l14.8-20L58.4,31.7 M26.8,43.4l0.1-2.6l0.4-2.6l0.7-2.5l1-2.4   l1.3-2.3l1.5-2.1l1.7-2l2-1.7l2.1-1.5l2.3-1.3l2.4-1l2.5-0.7l2.6-0.4l2.6-0.1l2.6,0.1l2.6,0.4l2.5,0.7l2.4,1l2.3,1.3l2.1,1.5l2,1.7   l1.7,2l1.5,2.1l1.3,2.3l1,2.4l0.7,2.5l0.4,2.6l0.1,2.6L73.3,46l-0.4,2.6l-0.7,2.5l-1,2.4l-1.3,2.3l-1.5,2.1l-1.7,2l-2,1.7l-2.1,1.5   l-2.3,1.3l-2.4,1l-2.5,0.7l-2.6,0.4l-2.6,0.1l-2.6-0.1l-2.6-0.4l-2.5-0.7l-2.4-1l-2.3-1.3l-2.1-1.5l-2-1.7l-1.7-2l-1.5-2.1   l-1.3-2.3l-1-2.4l-0.7-2.5L26.9,46L26.8,43.4"/>
<polyline class="st0" points="58.6,34.2 60.1,35.7 47.4,53 41,46.7 42.6,45.1 47.2,49.7 58.6,34.2  "/></g>
<text x="0" y="115" fill="#000000" font-size="5px" font-weight="bold" 
font-family="'Helvetica Neue', Helvetica, Arial-Unicode, Arial, Sans-serif">Created by Tresnatiq</text>
<text x="0" y="120" fill="#000000" font-size="5px" font-weight="bold" font-family="'Helvetica Neue', Helvetica, Arial-Unicode, Arial, Sans-serif">from the Noun Project</text></svg>